<mxfile host="Electron" agent="Mozilla/5.0 (Windows NT 10.0; Win64; x64) AppleWebKit/537.36 (KHTML, like Gecko) draw.io/27.0.9 Chrome/134.0.6998.205 Electron/35.4.0 Safari/537.36" version="27.0.9">
  <diagram name="페이지-1" id="f_JMtZlyn6ZpZXrlYyOH">
    <mxGraphModel dx="1665" dy="2010" grid="1" gridSize="10" guides="1" tooltips="1" connect="1" arrows="1" fold="1" page="1" pageScale="1" pageWidth="827" pageHeight="1169" math="0" shadow="0">
      <root>
        <mxCell id="0" />
        <mxCell id="1" parent="0" />
        <mxCell id="IYg4jB_a1iVCHFTRbSBr-1" value="Interior designer" style="swimlane;whiteSpace=wrap;html=1;fillColor=#fff2cc;strokeColor=#d6b656;" vertex="1" parent="1">
          <mxGeometry x="290" y="-20" width="780" height="530" as="geometry" />
        </mxCell>
        <mxCell id="IYg4jB_a1iVCHFTRbSBr-2" value="class Room" style="swimlane;childLayout=stackLayout;horizontal=1;startSize=50;horizontalStack=0;rounded=1;fontSize=14;fontStyle=0;strokeWidth=2;resizeParent=0;resizeLast=1;shadow=0;dashed=0;align=center;arcSize=4;whiteSpace=wrap;html=1;" vertex="1" parent="IYg4jB_a1iVCHFTRbSBr-1">
          <mxGeometry x="500" y="210" width="160" height="120" as="geometry" />
        </mxCell>
        <mxCell id="IYg4jB_a1iVCHFTRbSBr-3" value="+Attribute1&#xa;+Attribute2&#xa;+Attribute3" style="align=left;strokeColor=none;fillColor=none;spacingLeft=4;spacingRight=4;fontSize=12;verticalAlign=top;resizable=0;rotatable=0;part=1;html=1;whiteSpace=wrap;" vertex="1" parent="IYg4jB_a1iVCHFTRbSBr-2">
          <mxGeometry y="50" width="160" height="70" as="geometry" />
        </mxCell>
        <mxCell id="IYg4jB_a1iVCHFTRbSBr-4" value="class House" style="swimlane;childLayout=stackLayout;horizontal=1;startSize=50;horizontalStack=0;rounded=1;fontSize=14;fontStyle=0;strokeWidth=2;resizeParent=0;resizeLast=1;shadow=0;dashed=0;align=center;arcSize=4;whiteSpace=wrap;html=1;" vertex="1" parent="IYg4jB_a1iVCHFTRbSBr-1">
          <mxGeometry x="230" y="210" width="160" height="120" as="geometry">
            <mxRectangle x="270" y="180" width="120" height="50" as="alternateBounds" />
          </mxGeometry>
        </mxCell>
        <mxCell id="IYg4jB_a1iVCHFTRbSBr-5" value="- for incapsulation&lt;div&gt;- storage for rooms &amp;amp;&lt;/div&gt;&lt;div&gt;set attribute values&lt;/div&gt;" style="align=left;strokeColor=none;fillColor=none;spacingLeft=4;spacingRight=4;fontSize=12;verticalAlign=top;resizable=0;rotatable=0;part=1;html=1;whiteSpace=wrap;" vertex="1" parent="IYg4jB_a1iVCHFTRbSBr-4">
          <mxGeometry y="50" width="160" height="70" as="geometry" />
        </mxCell>
        <mxCell id="IYg4jB_a1iVCHFTRbSBr-6" value="class construction&amp;nbsp;" style="swimlane;childLayout=stackLayout;horizontal=1;startSize=50;horizontalStack=0;rounded=1;fontSize=14;fontStyle=0;strokeWidth=2;resizeParent=0;resizeLast=1;shadow=0;dashed=0;align=center;arcSize=4;whiteSpace=wrap;html=1;" vertex="1" parent="IYg4jB_a1iVCHFTRbSBr-1">
          <mxGeometry x="230" y="380" width="160" height="120" as="geometry" />
        </mxCell>
        <mxCell id="IYg4jB_a1iVCHFTRbSBr-7" value="-functions for house work&lt;div&gt;-storage for construction work f.eks colors&lt;/div&gt;" style="align=left;strokeColor=none;fillColor=none;spacingLeft=4;spacingRight=4;fontSize=12;verticalAlign=top;resizable=0;rotatable=0;part=1;html=1;whiteSpace=wrap;" vertex="1" parent="IYg4jB_a1iVCHFTRbSBr-6">
          <mxGeometry y="50" width="160" height="70" as="geometry" />
        </mxCell>
        <mxCell id="IYg4jB_a1iVCHFTRbSBr-8" value="class View" style="swimlane;childLayout=stackLayout;horizontal=1;startSize=50;horizontalStack=0;rounded=1;fontSize=14;fontStyle=0;strokeWidth=2;resizeParent=0;resizeLast=1;shadow=0;dashed=0;align=center;arcSize=4;whiteSpace=wrap;html=1;" vertex="1" parent="IYg4jB_a1iVCHFTRbSBr-1">
          <mxGeometry x="500" y="380" width="160" height="120" as="geometry" />
        </mxCell>
        <mxCell id="IYg4jB_a1iVCHFTRbSBr-9" value="-console.writeline things &amp;amp; functions" style="align=left;strokeColor=none;fillColor=none;spacingLeft=4;spacingRight=4;fontSize=12;verticalAlign=top;resizable=0;rotatable=0;part=1;html=1;whiteSpace=wrap;" vertex="1" parent="IYg4jB_a1iVCHFTRbSBr-8">
          <mxGeometry y="50" width="160" height="70" as="geometry" />
        </mxCell>
        <mxCell id="IYg4jB_a1iVCHFTRbSBr-10" value="Program" style="swimlane;childLayout=stackLayout;horizontal=1;startSize=50;horizontalStack=0;rounded=1;fontSize=14;fontStyle=0;strokeWidth=2;resizeParent=0;resizeLast=1;shadow=0;dashed=0;align=center;arcSize=4;whiteSpace=wrap;html=1;" vertex="1" parent="IYg4jB_a1iVCHFTRbSBr-1">
          <mxGeometry x="500" y="50" width="160" height="120" as="geometry">
            <mxRectangle x="550" y="180" width="120" height="50" as="alternateBounds" />
          </mxGeometry>
        </mxCell>
        <mxCell id="IYg4jB_a1iVCHFTRbSBr-11" value="make instance&lt;div&gt;&lt;br&gt;&lt;/div&gt;" style="align=left;strokeColor=none;fillColor=none;spacingLeft=4;spacingRight=4;fontSize=12;verticalAlign=top;resizable=0;rotatable=0;part=1;html=1;whiteSpace=wrap;" vertex="1" parent="IYg4jB_a1iVCHFTRbSBr-10">
          <mxGeometry y="50" width="160" height="70" as="geometry" />
        </mxCell>
        <mxCell id="IYg4jB_a1iVCHFTRbSBr-14" style="edgeStyle=orthogonalEdgeStyle;rounded=0;orthogonalLoop=1;jettySize=auto;html=1;exitX=0.5;exitY=1;exitDx=0;exitDy=0;" edge="1" parent="IYg4jB_a1iVCHFTRbSBr-1" source="IYg4jB_a1iVCHFTRbSBr-11">
          <mxGeometry relative="1" as="geometry">
            <mxPoint x="580" y="210" as="targetPoint" />
          </mxGeometry>
        </mxCell>
        <mxCell id="IYg4jB_a1iVCHFTRbSBr-15" style="edgeStyle=orthogonalEdgeStyle;rounded=0;orthogonalLoop=1;jettySize=auto;html=1;entryX=1;entryY=0.5;entryDx=0;entryDy=0;" edge="1" parent="IYg4jB_a1iVCHFTRbSBr-1" source="IYg4jB_a1iVCHFTRbSBr-3" target="IYg4jB_a1iVCHFTRbSBr-5">
          <mxGeometry relative="1" as="geometry" />
        </mxCell>
        <mxCell id="IYg4jB_a1iVCHFTRbSBr-16" style="edgeStyle=orthogonalEdgeStyle;rounded=0;orthogonalLoop=1;jettySize=auto;html=1;entryX=0.5;entryY=0;entryDx=0;entryDy=0;" edge="1" parent="IYg4jB_a1iVCHFTRbSBr-1" source="IYg4jB_a1iVCHFTRbSBr-5" target="IYg4jB_a1iVCHFTRbSBr-6">
          <mxGeometry relative="1" as="geometry" />
        </mxCell>
        <mxCell id="IYg4jB_a1iVCHFTRbSBr-18" style="edgeStyle=none;rounded=0;orthogonalLoop=1;jettySize=auto;html=1;exitX=1;exitY=1;exitDx=0;exitDy=0;entryX=0;entryY=0;entryDx=0;entryDy=0;" edge="1" parent="IYg4jB_a1iVCHFTRbSBr-1" source="IYg4jB_a1iVCHFTRbSBr-5" target="IYg4jB_a1iVCHFTRbSBr-8">
          <mxGeometry relative="1" as="geometry" />
        </mxCell>
      </root>
    </mxGraphModel>
  </diagram>
</mxfile>
